# xmcd
#
# Track frame offsets: 
#        150
#        23034
#        44100
#        83825
#        106038
#        136970
#        184298
#        215866
#        240413
#        257533
#
# Disc length: 3780 seconds
#
# Revision: 0
# Processed by: cddbd v1.5.2PL0 Copyright (c) Steve Scherf et al.
# Submitted via: ExactAudioCopy v0.99pb5
#
DISCID=870ec20a
DTITLE=Eric Clapton  - God Hand Bless You - Disc 6 (05-19-01) Tampa,Fl
DTITLE=orida
DYEAR=1900
DGENRE=
TTITLE0=Travelin' Light
TTITLE1=Hoochie Coochie Man
TTITLE2=Stormy Monday
TTITLE3=Cocaine
TTITLE4=Wonderful Tonight
TTITLE5=Layla
TTITLE6=Sunshine Of Your Love
TTITLE7=Somewhere Over The Rainbow
TTITLE8=Ain't Gonna Stand For It
TTITLE9=Ain't Gonna Stand For It
EXTD=
EXTT0=
EXTT1=
EXTT2=
EXTT3=
EXTT4=
EXTT5=
EXTT6=
EXTT7=
EXTT8=
EXTT9=
PLAYORDER=
